<?xml version="1.0" encoding="UTF-8" ?>
<!DOCTYPE score-partwise PUBLIC '-//Recordare//DTD MusicXML 2.0 Partwise//EN' 'http://www.musicxml.org/dtds/2.0/partwise.dtd'>
<score-partwise version="2.0">
 <identification>
  <encoding>
   <encoding-date>2018-03-23</encoding-date>
   <software>Guitar Pro 6</software>
  </encoding>
 </identification>
 <part-list>
  <score-part id="P0">
   <part-name>Acoustic Piano</part-name>
   <part-abbreviation>A-Piano</part-abbreviation>
   <midi-instrument id="P0">
    <midi-channel>1</midi-channel>
    <midi-bank>1</midi-bank>
    <midi-program>1</midi-program>
    <volume>80</volume>
    <pan>0</pan>
   </midi-instrument>
  </score-part>
 </part-list>
 <part id="P0">
  <measure number="0">
   <attributes>
    <divisions>1</divisions>
    <key>
     <fifths>0</fifths>
     <mode>major</mode>
    </key>
    <time>
     <beats>3</beats>
     <beat-type>4</beat-type>
    </time>
    <clef>
     <sign>G</sign>
     <line>2</line>
    </clef>
   </attributes>
   <direction directive="yes" placement="above">
    <direction-type>
     <metronome default-y="40" parentheses="yes">
      <beat-unit>quarter</beat-unit>
      <per-minute>120</per-minute>
     </metronome>
    </direction-type>
    <sound tempo="120"/>
   </direction>
   <note>
    <pitch>
     <step>C</step>
     <octave>5</octave>
    </pitch>
    <duration>1</duration>
    <voice>1</voice>
    <type>quarter</type>
    <stem>down</stem>
    <notehead>normal</notehead>
    <notations>
     <technical/>
    </notations>
   </note>
   <note>
    <pitch>
     <step>B</step>
     <octave>4</octave>
    </pitch>
    <duration>1</duration>
    <voice>1</voice>
    <type>quarter</type>
    <stem>down</stem>
    <notehead>normal</notehead>
    <notations>
     <technical/>
    </notations>
   </note>
   <note>
    <pitch>
     <step>A</step>
     <octave>4</octave>
    </pitch>
    <duration>1</duration>
    <voice>1</voice>
    <type>quarter</type>
    <stem>up</stem>
    <notehead>normal</notehead>
    <notations>
     <technical/>
    </notations>
   </note>
  </measure>
  <measure number="1">
   <attributes>
    <clef>
     <sign>G</sign>
     <line>2</line>
    </clef>
   </attributes>
   <note>
    <pitch>
     <step>C</step>
     <octave>5</octave>
    </pitch>
    <duration>1</duration>
    <voice>1</voice>
    <type>quarter</type>
    <stem>down</stem>
    <notehead>normal</notehead>
    <notations>
     <technical/>
    </notations>
   </note>
   <note>
    <pitch>
     <step>B</step>
     <octave>4</octave>
    </pitch>
    <duration>1</duration>
    <voice>1</voice>
    <type>quarter</type>
    <stem>down</stem>
    <notehead>normal</notehead>
    <notations>
     <technical/>
    </notations>
   </note>
   <note>
    <pitch>
     <step>A</step>
     <octave>4</octave>
    </pitch>
    <duration>1</duration>
    <voice>1</voice>
    <type>quarter</type>
    <stem>up</stem>
    <notehead>normal</notehead>
    <notations>
     <technical/>
    </notations>
   </note>
  </measure>
  <measure number="2">
   <attributes>
    <clef>
     <sign>G</sign>
     <line>2</line>
    </clef>
   </attributes>
   <note>
    <pitch>
     <step>F</step>
     <octave>4</octave>
    </pitch>
    <duration>1</duration>
    <voice>1</voice>
    <type>quarter</type>
    <stem>up</stem>
    <notehead>normal</notehead>
    <notations>
     <technical/>
    </notations>
   </note>
   <note>
    <pitch>
     <step>G</step>
     <octave>4</octave>
    </pitch>
    <duration>1</duration>
    <voice>1</voice>
    <type>quarter</type>
    <stem>up</stem>
    <notehead>normal</notehead>
    <notations>
     <technical/>
    </notations>
   </note>
   <note>
    <pitch>
     <step>F</step>
     <octave>4</octave>
    </pitch>
    <duration>1</duration>
    <voice>1</voice>
    <type>quarter</type>
    <stem>up</stem>
    <notehead>normal</notehead>
    <notations>
     <technical/>
    </notations>
   </note>
  </measure>
  <measure number="3">
   <attributes>
    <clef>
     <sign>G</sign>
     <line>2</line>
    </clef>
   </attributes>
   <note>
    <pitch>
     <step>E</step>
     <octave>4</octave>
    </pitch>
    <duration>2</duration>
    <voice>1</voice>
    <type>half</type>
    <stem>up</stem>
    <notehead>normal</notehead>
    <notations>
     <technical/>
    </notations>
   </note>
   <note>
    <pitch>
     <step>B</step>
     <octave>4</octave>
    </pitch>
    <duration>1</duration>
    <voice>1</voice>
    <type>quarter</type>
    <stem>down</stem>
    <notehead>normal</notehead>
    <notations>
     <technical/>
    </notations>
   </note>
  </measure>
  <measure number="4">
   <attributes>
    <clef>
     <sign>G</sign>
     <line>2</line>
    </clef>
   </attributes>
   <note>
    <pitch>
     <step>C</step>
     <octave>5</octave>
    </pitch>
    <duration>1</duration>
    <voice>1</voice>
    <type>quarter</type>
    <stem>down</stem>
    <notehead>normal</notehead>
    <notations>
     <technical/>
    </notations>
   </note>
   <note>
    <pitch>
     <step>B</step>
     <octave>4</octave>
    </pitch>
    <duration>1</duration>
    <voice>1</voice>
    <type>quarter</type>
    <stem>down</stem>
    <notehead>normal</notehead>
    <notations>
     <technical/>
    </notations>
   </note>
   <note>
    <pitch>
     <step>A</step>
     <octave>4</octave>
    </pitch>
    <duration>1</duration>
    <voice>1</voice>
    <type>quarter</type>
    <stem>up</stem>
    <notehead>normal</notehead>
    <notations>
     <technical/>
    </notations>
   </note>
  </measure>
  <measure number="5">
   <attributes>
    <clef>
     <sign>G</sign>
     <line>2</line>
    </clef>
   </attributes>
   <note>
    <pitch>
     <step>C</step>
     <octave>5</octave>
    </pitch>
    <duration>1</duration>
    <voice>1</voice>
    <type>quarter</type>
    <stem>down</stem>
    <notehead>normal</notehead>
    <notations>
     <technical/>
    </notations>
   </note>
   <note>
    <pitch>
     <step>B</step>
     <octave>4</octave>
    </pitch>
    <duration>1</duration>
    <voice>1</voice>
    <type>quarter</type>
    <stem>down</stem>
    <notehead>normal</notehead>
    <notations>
     <technical/>
    </notations>
   </note>
   <note>
    <pitch>
     <step>D</step>
     <octave>5</octave>
    </pitch>
    <duration>1</duration>
    <voice>1</voice>
    <type>quarter</type>
    <stem>down</stem>
    <notehead>normal</notehead>
    <notations>
     <technical/>
    </notations>
   </note>
  </measure>
  <measure number="6">
   <attributes>
    <clef>
     <sign>G</sign>
     <line>2</line>
    </clef>
   </attributes>
   <note>
    <pitch>
     <step>E</step>
     <octave>5</octave>
    </pitch>
    <duration>1</duration>
    <voice>1</voice>
    <type>quarter</type>
    <stem>down</stem>
    <notehead>normal</notehead>
    <notations>
     <technical/>
    </notations>
   </note>
   <note>
    <pitch>
     <step>E</step>
     <octave>5</octave>
    </pitch>
    <duration>1</duration>
    <voice>1</voice>
    <type>quarter</type>
    <stem>down</stem>
    <notehead>normal</notehead>
    <notations>
     <technical/>
    </notations>
   </note>
   <note>
    <pitch>
     <step>F</step>
     <octave>5</octave>
    </pitch>
    <duration>1</duration>
    <voice>1</voice>
    <type>quarter</type>
    <stem>down</stem>
    <notehead>normal</notehead>
    <notations>
     <technical/>
    </notations>
   </note>
  </measure>
  <measure number="7">
   <attributes>
    <clef>
     <sign>G</sign>
     <line>2</line>
    </clef>
   </attributes>
   <note>
    <pitch>
     <step>G</step>
     <octave>5</octave>
    </pitch>
    <duration>2</duration>
    <voice>1</voice>
    <type>half</type>
    <stem>down</stem>
    <notehead>normal</notehead>
    <notations>
     <technical/>
    </notations>
   </note>
   <note>
    <pitch>
     <step>B</step>
     <octave>4</octave>
    </pitch>
    <duration>1</duration>
    <voice>1</voice>
    <type>quarter</type>
    <stem>down</stem>
    <notehead>normal</notehead>
    <notations>
     <technical/>
    </notations>
   </note>
  </measure>
  <measure number="8">
   <attributes>
    <divisions>2</divisions>
    <clef>
     <sign>G</sign>
     <line>2</line>
    </clef>
   </attributes>
   <note>
    <pitch>
     <step>C</step>
     <octave>5</octave>
    </pitch>
    <duration>2</duration>
    <voice>1</voice>
    <type>quarter</type>
    <stem>down</stem>
    <notehead>normal</notehead>
    <notations>
     <technical/>
    </notations>
   </note>
   <note>
    <pitch>
     <step>C</step>
     <octave>5</octave>
    </pitch>
    <duration>2</duration>
    <voice>1</voice>
    <type>quarter</type>
    <stem>down</stem>
    <notehead>normal</notehead>
    <notations>
     <technical/>
    </notations>
   </note>
   <note>
    <pitch>
     <step>D</step>
     <octave>5</octave>
    </pitch>
    <duration>1</duration>
    <voice>1</voice>
    <type>eighth</type>
    <stem>down</stem>
    <notehead>normal</notehead>
    <beam number="1">begin</beam>
    <notations>
     <technical/>
    </notations>
   </note>
   <note>
    <pitch>
     <step>E</step>
     <octave>5</octave>
    </pitch>
    <duration>1</duration>
    <voice>1</voice>
    <type>eighth</type>
    <stem>down</stem>
    <notehead>normal</notehead>
    <beam number="1">end</beam>
    <notations>
     <technical/>
    </notations>
   </note>
  </measure>
  <measure number="9">
   <attributes>
    <clef>
     <sign>G</sign>
     <line>2</line>
    </clef>
   </attributes>
   <note>
    <pitch>
     <step>C</step>
     <octave>5</octave>
    </pitch>
    <duration>2</duration>
    <voice>1</voice>
    <type>quarter</type>
    <stem>down</stem>
    <notehead>normal</notehead>
    <notations>
     <technical/>
    </notations>
   </note>
   <note>
    <pitch>
     <step>C</step>
     <octave>5</octave>
    </pitch>
    <duration>2</duration>
    <voice>1</voice>
    <type>quarter</type>
    <stem>down</stem>
    <notehead>normal</notehead>
    <notations>
     <technical/>
    </notations>
   </note>
   <note>
    <pitch>
     <step>E</step>
     <octave>5</octave>
    </pitch>
    <duration>1</duration>
    <voice>1</voice>
    <type>eighth</type>
    <stem>down</stem>
    <notehead>normal</notehead>
    <beam number="1">begin</beam>
    <notations>
     <technical/>
    </notations>
   </note>
   <note>
    <pitch>
     <step>D</step>
     <octave>5</octave>
    </pitch>
    <duration>1</duration>
    <voice>1</voice>
    <type>eighth</type>
    <stem>down</stem>
    <notehead>normal</notehead>
    <beam number="1">end</beam>
    <notations>
     <technical/>
    </notations>
   </note>
  </measure>
  <measure number="10">
   <attributes>
    <divisions>1</divisions>
    <clef>
     <sign>G</sign>
     <line>2</line>
    </clef>
   </attributes>
   <note>
    <pitch>
     <step>C</step>
     <octave>5</octave>
    </pitch>
    <duration>1</duration>
    <voice>1</voice>
    <type>quarter</type>
    <stem>down</stem>
    <notehead>normal</notehead>
    <notations>
     <technical/>
    </notations>
   </note>
   <note>
    <pitch>
     <step>B</step>
     <octave>4</octave>
    </pitch>
    <duration>1</duration>
    <voice>1</voice>
    <type>quarter</type>
    <stem>down</stem>
    <notehead>normal</notehead>
    <notations>
     <technical/>
    </notations>
   </note>
   <note>
    <pitch>
     <step>A</step>
     <octave>4</octave>
    </pitch>
    <duration>1</duration>
    <voice>1</voice>
    <type>quarter</type>
    <stem>up</stem>
    <notehead>normal</notehead>
    <notations>
     <technical/>
    </notations>
   </note>
  </measure>
  <measure number="11">
   <attributes>
    <divisions>2</divisions>
    <clef>
     <sign>G</sign>
     <line>2</line>
    </clef>
   </attributes>
   <note>
    <pitch>
     <step>G</step>
     <octave>4</octave>
    </pitch>
    <duration>4</duration>
    <voice>1</voice>
    <type>half</type>
    <stem>up</stem>
    <notehead>normal</notehead>
    <notations>
     <technical/>
    </notations>
   </note>
   <note>
    <pitch>
     <step>B</step>
     <octave>4</octave>
    </pitch>
    <duration>1</duration>
    <voice>1</voice>
    <type>eighth</type>
    <stem>down</stem>
    <notehead>normal</notehead>
    <beam number="1">begin</beam>
    <notations>
     <technical/>
    </notations>
   </note>
   <note>
    <pitch>
     <step>D</step>
     <octave>5</octave>
    </pitch>
    <duration>1</duration>
    <voice>1</voice>
    <type>eighth</type>
    <stem>down</stem>
    <notehead>normal</notehead>
    <beam number="1">end</beam>
    <notations>
     <technical/>
    </notations>
   </note>
  </measure>
  <measure number="12">
   <attributes>
    <clef>
     <sign>G</sign>
     <line>2</line>
    </clef>
   </attributes>
   <note>
    <pitch>
     <step>E</step>
     <octave>5</octave>
    </pitch>
    <duration>2</duration>
    <voice>1</voice>
    <type>quarter</type>
    <stem>down</stem>
    <notehead>normal</notehead>
    <notations>
     <technical/>
    </notations>
   </note>
   <note>
    <pitch>
     <step>E</step>
     <octave>5</octave>
    </pitch>
    <duration>2</duration>
    <voice>1</voice>
    <type>quarter</type>
    <stem>down</stem>
    <notehead>normal</notehead>
    <notations>
     <technical/>
    </notations>
   </note>
   <note>
    <pitch>
     <step>B</step>
     <octave>4</octave>
    </pitch>
    <duration>1</duration>
    <voice>1</voice>
    <type>eighth</type>
    <stem>down</stem>
    <notehead>normal</notehead>
    <beam number="1">begin</beam>
    <notations>
     <technical/>
    </notations>
   </note>
   <note>
    <pitch>
     <step>D</step>
     <octave>5</octave>
    </pitch>
    <duration>1</duration>
    <voice>1</voice>
    <type>eighth</type>
    <stem>down</stem>
    <notehead>normal</notehead>
    <beam number="1">end</beam>
    <notations>
     <technical/>
    </notations>
   </note>
  </measure>
  <measure number="13">
   <attributes>
    <clef>
     <sign>G</sign>
     <line>2</line>
    </clef>
   </attributes>
   <note>
    <pitch>
     <step>E</step>
     <octave>5</octave>
    </pitch>
    <duration>2</duration>
    <voice>1</voice>
    <type>quarter</type>
    <stem>down</stem>
    <notehead>normal</notehead>
    <notations>
     <technical/>
    </notations>
   </note>
   <note>
    <pitch>
     <step>G</step>
     <octave>5</octave>
    </pitch>
    <duration>2</duration>
    <voice>1</voice>
    <type>quarter</type>
    <stem>down</stem>
    <notehead>normal</notehead>
    <notations>
     <technical/>
    </notations>
   </note>
   <note>
    <pitch>
     <step>F</step>
     <octave>5</octave>
    </pitch>
    <duration>1</duration>
    <voice>1</voice>
    <type>eighth</type>
    <stem>down</stem>
    <notehead>normal</notehead>
    <beam number="1">begin</beam>
    <notations>
     <technical/>
    </notations>
   </note>
   <note>
    <pitch>
     <step>D</step>
     <octave>5</octave>
    </pitch>
    <duration>1</duration>
    <voice>1</voice>
    <type>eighth</type>
    <stem>down</stem>
    <notehead>normal</notehead>
    <beam number="1">end</beam>
    <notations>
     <technical/>
    </notations>
   </note>
  </measure>
  <measure number="14">
   <attributes>
    <divisions>1</divisions>
    <clef>
     <sign>G</sign>
     <line>2</line>
    </clef>
   </attributes>
   <note>
    <pitch>
     <step>C</step>
     <octave>5</octave>
    </pitch>
    <duration>1</duration>
    <voice>1</voice>
    <type>quarter</type>
    <stem>down</stem>
    <notehead>normal</notehead>
    <notations>
     <technical/>
    </notations>
   </note>
   <note>
    <pitch>
     <step>B</step>
     <octave>4</octave>
    </pitch>
    <duration>1</duration>
    <voice>1</voice>
    <type>quarter</type>
    <stem>down</stem>
    <notehead>normal</notehead>
    <notations>
     <technical/>
    </notations>
   </note>
   <note>
    <pitch>
     <step>D</step>
     <octave>5</octave>
    </pitch>
    <duration>1</duration>
    <voice>1</voice>
    <type>quarter</type>
    <stem>down</stem>
    <notehead>normal</notehead>
    <notations>
     <technical/>
    </notations>
   </note>
  </measure>
  <measure number="15">
   <attributes>
    <divisions>2</divisions>
    <clef>
     <sign>G</sign>
     <line>2</line>
    </clef>
   </attributes>
   <note>
    <pitch>
     <step>C</step>
     <octave>5</octave>
    </pitch>
    <duration>4</duration>
    <voice>1</voice>
    <type>half</type>
    <stem>down</stem>
    <notehead>normal</notehead>
    <notations>
     <technical/>
    </notations>
   </note>
   <note>
    <pitch>
     <step>B</step>
     <octave>4</octave>
    </pitch>
    <duration>1</duration>
    <voice>1</voice>
    <type>eighth</type>
    <stem>down</stem>
    <notehead>normal</notehead>
    <beam number="1">begin</beam>
    <notations>
     <technical/>
    </notations>
   </note>
   <note>
    <pitch>
     <step>D</step>
     <octave>5</octave>
    </pitch>
    <duration>1</duration>
    <voice>1</voice>
    <type>eighth</type>
    <stem>down</stem>
    <notehead>normal</notehead>
    <beam number="1">end</beam>
    <notations>
     <technical/>
    </notations>
   </note>
  </measure>
  <measure number="16">
   <attributes>
    <clef>
     <sign>G</sign>
     <line>2</line>
    </clef>
   </attributes>
   <note>
    <pitch>
     <step>E</step>
     <octave>5</octave>
    </pitch>
    <duration>2</duration>
    <voice>1</voice>
    <type>quarter</type>
    <stem>down</stem>
    <notehead>normal</notehead>
    <notations>
     <technical/>
    </notations>
   </note>
   <note>
    <pitch>
     <step>E</step>
     <octave>5</octave>
    </pitch>
    <duration>1</duration>
    <voice>1</voice>
    <type>eighth</type>
    <stem>down</stem>
    <notehead>normal</notehead>
    <beam number="1">begin</beam>
    <notations>
     <technical/>
    </notations>
   </note>
   <note>
    <pitch>
     <step>E</step>
     <octave>5</octave>
    </pitch>
    <duration>1</duration>
    <voice>1</voice>
    <type>eighth</type>
    <stem>down</stem>
    <notehead>normal</notehead>
    <beam number="1">end</beam>
    <notations>
     <technical/>
    </notations>
   </note>
   <note>
    <pitch>
     <step>E</step>
     <octave>5</octave>
    </pitch>
    <duration>1</duration>
    <voice>1</voice>
    <type>eighth</type>
    <stem>down</stem>
    <notehead>normal</notehead>
    <beam number="1">begin</beam>
    <notations>
     <technical/>
    </notations>
   </note>
   <note>
    <pitch>
     <step>F</step>
     <octave>5</octave>
    </pitch>
    <duration>1</duration>
    <voice>1</voice>
    <type>eighth</type>
    <stem>down</stem>
    <notehead>normal</notehead>
    <beam number="1">end</beam>
    <notations>
     <technical/>
    </notations>
   </note>
  </measure>
  <measure number="17">
   <attributes>
    <clef>
     <sign>G</sign>
     <line>2</line>
    </clef>
   </attributes>
   <note>
    <pitch>
     <step>D</step>
     <octave>5</octave>
    </pitch>
    <duration>2</duration>
    <voice>1</voice>
    <type>quarter</type>
    <stem>down</stem>
    <notehead>normal</notehead>
    <notations>
     <technical/>
    </notations>
   </note>
   <note>
    <pitch>
     <step>D</step>
     <octave>5</octave>
    </pitch>
    <duration>1</duration>
    <voice>1</voice>
    <type>eighth</type>
    <stem>down</stem>
    <notehead>normal</notehead>
    <beam number="1">begin</beam>
    <notations>
     <technical/>
    </notations>
   </note>
   <note>
    <pitch>
     <step>D</step>
     <octave>5</octave>
    </pitch>
    <duration>1</duration>
    <voice>1</voice>
    <type>eighth</type>
    <stem>down</stem>
    <notehead>normal</notehead>
    <beam number="1">end</beam>
    <notations>
     <technical/>
    </notations>
   </note>
   <note>
    <pitch>
     <step>D</step>
     <octave>5</octave>
    </pitch>
    <duration>1</duration>
    <voice>1</voice>
    <type>eighth</type>
    <stem>down</stem>
    <notehead>normal</notehead>
    <beam number="1">begin</beam>
    <notations>
     <technical/>
    </notations>
   </note>
   <note>
    <pitch>
     <step>E</step>
     <octave>5</octave>
    </pitch>
    <duration>1</duration>
    <voice>1</voice>
    <type>eighth</type>
    <stem>down</stem>
    <notehead>normal</notehead>
    <beam number="1">end</beam>
    <notations>
     <technical/>
    </notations>
   </note>
  </measure>
  <measure number="18">
   <attributes>
    <divisions>4</divisions>
    <clef>
     <sign>G</sign>
     <line>2</line>
    </clef>
   </attributes>
   <note>
    <pitch>
     <step>C</step>
     <octave>5</octave>
    </pitch>
    <duration>2</duration>
    <voice>1</voice>
    <type>eighth</type>
    <stem>down</stem>
    <notehead>normal</notehead>
    <beam number="1">begin</beam>
    <notations>
     <technical/>
    </notations>
   </note>
   <note>
    <pitch>
     <step>C</step>
     <octave>5</octave>
    </pitch>
    <duration>2</duration>
    <voice>1</voice>
    <type>eighth</type>
    <stem>down</stem>
    <notehead>normal</notehead>
    <beam number="1">end</beam>
    <notations>
     <technical/>
    </notations>
   </note>
   <note>
    <pitch>
     <step>C</step>
     <octave>5</octave>
    </pitch>
    <duration>2</duration>
    <voice>1</voice>
    <type>eighth</type>
    <stem>down</stem>
    <notehead>normal</notehead>
    <beam number="1">begin</beam>
    <notations>
     <technical/>
    </notations>
   </note>
   <note>
    <pitch>
     <step>C</step>
     <octave>5</octave>
    </pitch>
    <duration>1</duration>
    <voice>1</voice>
    <type>16th</type>
    <stem>down</stem>
    <notehead>normal</notehead>
    <beam number="1">continue</beam>
    <beam number="2">begin</beam>
    <notations>
     <technical/>
    </notations>
   </note>
   <note>
    <pitch>
     <step>C</step>
     <octave>5</octave>
    </pitch>
    <duration>1</duration>
    <voice>1</voice>
    <type>16th</type>
    <stem>down</stem>
    <notehead>normal</notehead>
    <beam number="1">end</beam>
    <beam number="2">end</beam>
    <notations>
     <technical/>
    </notations>
   </note>
   <note>
    <pitch>
     <step>B</step>
     <octave>4</octave>
    </pitch>
    <duration>2</duration>
    <voice>1</voice>
    <type>eighth</type>
    <stem>down</stem>
    <notehead>normal</notehead>
    <beam number="1">begin</beam>
    <notations>
     <technical/>
    </notations>
   </note>
   <note>
    <pitch>
     <step>D</step>
     <octave>5</octave>
    </pitch>
    <duration>2</duration>
    <voice>1</voice>
    <type>eighth</type>
    <stem>down</stem>
    <notehead>normal</notehead>
    <beam number="1">end</beam>
    <notations>
     <technical/>
    </notations>
   </note>
  </measure>
  <measure number="19">
   <attributes>
    <divisions>2</divisions>
    <clef>
     <sign>G</sign>
     <line>2</line>
    </clef>
   </attributes>
   <note>
    <pitch>
     <step>C</step>
     <octave>5</octave>
    </pitch>
    <duration>1</duration>
    <voice>1</voice>
    <type>eighth</type>
    <stem>down</stem>
    <notehead>normal</notehead>
    <beam number="1">begin</beam>
    <notations>
     <technical/>
    </notations>
   </note>
   <note>
    <pitch>
     <step>B</step>
     <octave>4</octave>
    </pitch>
    <duration>1</duration>
    <voice>1</voice>
    <type>eighth</type>
    <stem>down</stem>
    <notehead>normal</notehead>
    <beam number="1">end</beam>
    <notations>
     <technical/>
    </notations>
   </note>
   <note>
    <pitch>
     <step>A</step>
     <octave>4</octave>
    </pitch>
    <duration>1</duration>
    <voice>1</voice>
    <type>eighth</type>
    <stem>up</stem>
    <notehead>normal</notehead>
    <beam number="1">begin</beam>
    <notations>
     <technical/>
    </notations>
   </note>
   <note>
    <pitch>
     <step>G</step>
     <octave>4</octave>
    </pitch>
    <duration>1</duration>
    <voice>1</voice>
    <type>eighth</type>
    <stem>up</stem>
    <notehead>normal</notehead>
    <beam number="1">end</beam>
    <notations>
     <technical/>
    </notations>
   </note>
   <note>
    <pitch>
     <step>B</step>
     <octave>4</octave>
    </pitch>
    <duration>1</duration>
    <voice>1</voice>
    <type>eighth</type>
    <stem>down</stem>
    <notehead>normal</notehead>
    <beam number="1">begin</beam>
    <notations>
     <technical/>
    </notations>
   </note>
   <note>
    <pitch>
     <step>D</step>
     <octave>5</octave>
    </pitch>
    <duration>1</duration>
    <voice>1</voice>
    <type>eighth</type>
    <stem>down</stem>
    <notehead>normal</notehead>
    <beam number="1">end</beam>
    <notations>
     <technical/>
    </notations>
   </note>
  </measure>
  <measure number="20">
   <attributes>
    <clef>
     <sign>G</sign>
     <line>2</line>
    </clef>
   </attributes>
   <note>
    <pitch>
     <step>E</step>
     <octave>5</octave>
    </pitch>
    <duration>2</duration>
    <voice>1</voice>
    <type>quarter</type>
    <stem>down</stem>
    <notehead>normal</notehead>
    <notations>
     <technical/>
    </notations>
   </note>
   <note>
    <pitch>
     <step>E</step>
     <octave>5</octave>
    </pitch>
    <duration>1</duration>
    <voice>1</voice>
    <type>eighth</type>
    <stem>down</stem>
    <notehead>normal</notehead>
    <beam number="1">begin</beam>
    <notations>
     <technical/>
    </notations>
   </note>
   <note>
    <pitch>
     <step>E</step>
     <octave>5</octave>
    </pitch>
    <duration>1</duration>
    <voice>1</voice>
    <type>eighth</type>
    <stem>down</stem>
    <notehead>normal</notehead>
    <beam number="1">end</beam>
    <notations>
     <technical/>
    </notations>
   </note>
   <note>
    <pitch>
     <step>E</step>
     <octave>5</octave>
    </pitch>
    <duration>1</duration>
    <voice>1</voice>
    <type>eighth</type>
    <stem>down</stem>
    <notehead>normal</notehead>
    <beam number="1">begin</beam>
    <notations>
     <technical/>
    </notations>
   </note>
   <note>
    <pitch>
     <step>F</step>
     <octave>5</octave>
    </pitch>
    <duration>1</duration>
    <voice>1</voice>
    <type>eighth</type>
    <stem>down</stem>
    <notehead>normal</notehead>
    <beam number="1">end</beam>
    <notations>
     <technical/>
    </notations>
   </note>
  </measure>
  <measure number="21">
   <attributes>
    <clef>
     <sign>G</sign>
     <line>2</line>
    </clef>
   </attributes>
   <note>
    <pitch>
     <step>D</step>
     <octave>5</octave>
    </pitch>
    <duration>2</duration>
    <voice>1</voice>
    <type>quarter</type>
    <stem>down</stem>
    <notehead>normal</notehead>
    <notations>
     <technical/>
    </notations>
   </note>
   <note>
    <pitch>
     <step>D</step>
     <octave>5</octave>
    </pitch>
    <duration>1</duration>
    <voice>1</voice>
    <type>eighth</type>
    <stem>down</stem>
    <notehead>normal</notehead>
    <beam number="1">begin</beam>
    <notations>
     <technical/>
    </notations>
   </note>
   <note>
    <pitch>
     <step>D</step>
     <octave>5</octave>
    </pitch>
    <duration>1</duration>
    <voice>1</voice>
    <type>eighth</type>
    <stem>down</stem>
    <notehead>normal</notehead>
    <beam number="1">end</beam>
    <notations>
     <technical/>
    </notations>
   </note>
   <note>
    <pitch>
     <step>D</step>
     <octave>5</octave>
    </pitch>
    <duration>1</duration>
    <voice>1</voice>
    <type>eighth</type>
    <stem>down</stem>
    <notehead>normal</notehead>
    <beam number="1">begin</beam>
    <notations>
     <technical/>
    </notations>
   </note>
   <note>
    <pitch>
     <step>E</step>
     <octave>5</octave>
    </pitch>
    <duration>1</duration>
    <voice>1</voice>
    <type>eighth</type>
    <stem>down</stem>
    <notehead>normal</notehead>
    <beam number="1">end</beam>
    <notations>
     <technical/>
    </notations>
   </note>
  </measure>
  <measure number="22">
   <attributes>
    <divisions>4</divisions>
    <clef>
     <sign>G</sign>
     <line>2</line>
    </clef>
   </attributes>
   <note>
    <pitch>
     <step>C</step>
     <octave>5</octave>
    </pitch>
    <duration>2</duration>
    <voice>1</voice>
    <type>eighth</type>
    <stem>down</stem>
    <notehead>normal</notehead>
    <beam number="1">begin</beam>
    <notations>
     <technical/>
    </notations>
   </note>
   <note>
    <pitch>
     <step>C</step>
     <octave>5</octave>
    </pitch>
    <duration>2</duration>
    <voice>1</voice>
    <type>eighth</type>
    <stem>down</stem>
    <notehead>normal</notehead>
    <beam number="1">end</beam>
    <notations>
     <technical/>
    </notations>
   </note>
   <note>
    <pitch>
     <step>C</step>
     <octave>5</octave>
    </pitch>
    <duration>2</duration>
    <voice>1</voice>
    <type>eighth</type>
    <stem>down</stem>
    <notehead>normal</notehead>
    <beam number="1">begin</beam>
    <notations>
     <technical/>
    </notations>
   </note>
   <note>
    <pitch>
     <step>C</step>
     <octave>5</octave>
    </pitch>
    <duration>1</duration>
    <voice>1</voice>
    <type>16th</type>
    <stem>down</stem>
    <notehead>normal</notehead>
    <beam number="1">continue</beam>
    <beam number="2">begin</beam>
    <notations>
     <technical/>
    </notations>
   </note>
   <note>
    <pitch>
     <step>C</step>
     <octave>5</octave>
    </pitch>
    <duration>1</duration>
    <voice>1</voice>
    <type>16th</type>
    <stem>down</stem>
    <notehead>normal</notehead>
    <beam number="1">end</beam>
    <beam number="2">end</beam>
    <notations>
     <technical/>
    </notations>
   </note>
   <note>
    <pitch>
     <step>B</step>
     <octave>4</octave>
    </pitch>
    <duration>2</duration>
    <voice>1</voice>
    <type>eighth</type>
    <stem>down</stem>
    <notehead>normal</notehead>
    <beam number="1">begin</beam>
    <notations>
     <technical/>
    </notations>
   </note>
   <note>
    <pitch>
     <step>D</step>
     <octave>5</octave>
    </pitch>
    <duration>2</duration>
    <voice>1</voice>
    <type>eighth</type>
    <stem>down</stem>
    <notehead>normal</notehead>
    <beam number="1">end</beam>
    <notations>
     <technical/>
    </notations>
   </note>
  </measure>
  <measure number="23">
   <attributes>
    <divisions>2</divisions>
    <clef>
     <sign>G</sign>
     <line>2</line>
    </clef>
   </attributes>
   <note>
    <pitch>
     <step>C</step>
     <octave>5</octave>
    </pitch>
    <duration>3</duration>
    <voice>1</voice>
    <type>quarter</type>
    <dot/>
    <stem>down</stem>
    <notehead>normal</notehead>
    <notations>
     <technical/>
    </notations>
   </note>
   <note>
    <pitch>
     <step>G</step>
     <octave>4</octave>
    </pitch>
    <duration>1</duration>
    <voice>1</voice>
    <type>eighth</type>
    <stem>up</stem>
    <notehead>normal</notehead>
    <notations>
     <technical/>
    </notations>
   </note>
   <note>
    <pitch>
     <step>B</step>
     <octave>4</octave>
    </pitch>
    <duration>1</duration>
    <voice>1</voice>
    <type>eighth</type>
    <stem>down</stem>
    <notehead>normal</notehead>
    <beam number="1">begin</beam>
    <notations>
     <technical/>
    </notations>
   </note>
   <note>
    <pitch>
     <step>D</step>
     <octave>5</octave>
    </pitch>
    <duration>1</duration>
    <voice>1</voice>
    <type>eighth</type>
    <stem>down</stem>
    <notehead>normal</notehead>
    <beam number="1">end</beam>
    <notations>
     <technical/>
    </notations>
   </note>
  </measure>
  <measure number="24">
   <attributes>
    <divisions>1</divisions>
    <clef>
     <sign>G</sign>
     <line>2</line>
    </clef>
   </attributes>
   <note>
    <pitch>
     <step>C</step>
     <octave>5</octave>
    </pitch>
    <duration>1</duration>
    <voice>1</voice>
    <type>quarter</type>
    <stem>down</stem>
    <notehead>normal</notehead>
    <notations>
     <technical/>
    </notations>
   </note>
   <note>
    <pitch>
     <step>B</step>
     <octave>4</octave>
    </pitch>
    <duration>1</duration>
    <voice>1</voice>
    <type>quarter</type>
    <stem>down</stem>
    <notehead>normal</notehead>
    <notations>
     <technical/>
    </notations>
   </note>
   <note>
    <pitch>
     <step>A</step>
     <octave>4</octave>
    </pitch>
    <duration>1</duration>
    <voice>1</voice>
    <type>quarter</type>
    <stem>up</stem>
    <notehead>normal</notehead>
    <notations>
     <technical/>
    </notations>
   </note>
  </measure>
  <measure number="25">
   <attributes>
    <clef>
     <sign>G</sign>
     <line>2</line>
    </clef>
   </attributes>
   <note>
    <pitch>
     <step>C</step>
     <octave>5</octave>
    </pitch>
    <duration>1</duration>
    <voice>1</voice>
    <type>quarter</type>
    <stem>down</stem>
    <notehead>normal</notehead>
    <notations>
     <technical/>
    </notations>
   </note>
   <note>
    <pitch>
     <step>B</step>
     <octave>4</octave>
    </pitch>
    <duration>1</duration>
    <voice>1</voice>
    <type>quarter</type>
    <stem>down</stem>
    <notehead>normal</notehead>
    <notations>
     <technical/>
    </notations>
   </note>
   <note>
    <pitch>
     <step>A</step>
     <octave>4</octave>
    </pitch>
    <duration>1</duration>
    <voice>1</voice>
    <type>quarter</type>
    <stem>up</stem>
    <notehead>normal</notehead>
    <notations>
     <technical/>
    </notations>
   </note>
  </measure>
  <measure number="26">
   <attributes>
    <clef>
     <sign>G</sign>
     <line>2</line>
    </clef>
   </attributes>
   <note>
    <pitch>
     <step>F</step>
     <octave>4</octave>
    </pitch>
    <duration>1</duration>
    <voice>1</voice>
    <type>quarter</type>
    <stem>up</stem>
    <notehead>normal</notehead>
    <notations>
     <technical/>
    </notations>
   </note>
   <note>
    <pitch>
     <step>G</step>
     <octave>4</octave>
    </pitch>
    <duration>1</duration>
    <voice>1</voice>
    <type>quarter</type>
    <stem>up</stem>
    <notehead>normal</notehead>
    <notations>
     <technical/>
    </notations>
   </note>
   <note>
    <pitch>
     <step>F</step>
     <octave>4</octave>
    </pitch>
    <duration>1</duration>
    <voice>1</voice>
    <type>quarter</type>
    <stem>up</stem>
    <notehead>normal</notehead>
    <notations>
     <technical/>
    </notations>
   </note>
  </measure>
  <measure number="27">
   <attributes>
    <clef>
     <sign>G</sign>
     <line>2</line>
    </clef>
   </attributes>
   <note>
    <pitch>
     <step>E</step>
     <octave>4</octave>
    </pitch>
    <duration>2</duration>
    <voice>1</voice>
    <type>half</type>
    <stem>up</stem>
    <notehead>normal</notehead>
    <notations>
     <technical/>
    </notations>
   </note>
   <note>
    <pitch>
     <step>B</step>
     <octave>4</octave>
    </pitch>
    <duration>1</duration>
    <voice>1</voice>
    <type>quarter</type>
    <stem>down</stem>
    <notehead>normal</notehead>
    <notations>
     <technical/>
    </notations>
   </note>
  </measure>
  <measure number="28">
   <attributes>
    <clef>
     <sign>G</sign>
     <line>2</line>
    </clef>
   </attributes>
   <note>
    <pitch>
     <step>C</step>
     <octave>5</octave>
    </pitch>
    <duration>1</duration>
    <voice>1</voice>
    <type>quarter</type>
    <stem>down</stem>
    <notehead>normal</notehead>
    <notations>
     <technical/>
    </notations>
   </note>
   <note>
    <pitch>
     <step>B</step>
     <octave>4</octave>
    </pitch>
    <duration>1</duration>
    <voice>1</voice>
    <type>quarter</type>
    <stem>down</stem>
    <notehead>normal</notehead>
    <notations>
     <technical/>
    </notations>
   </note>
   <note>
    <pitch>
     <step>A</step>
     <octave>4</octave>
    </pitch>
    <duration>1</duration>
    <voice>1</voice>
    <type>quarter</type>
    <stem>up</stem>
    <notehead>normal</notehead>
    <notations>
     <technical/>
    </notations>
   </note>
  </measure>
  <measure number="29">
   <attributes>
    <clef>
     <sign>G</sign>
     <line>2</line>
    </clef>
   </attributes>
   <note>
    <pitch>
     <step>C</step>
     <octave>5</octave>
    </pitch>
    <duration>1</duration>
    <voice>1</voice>
    <type>quarter</type>
    <stem>down</stem>
    <notehead>normal</notehead>
    <notations>
     <technical/>
    </notations>
   </note>
   <note>
    <pitch>
     <step>B</step>
     <octave>4</octave>
    </pitch>
    <duration>1</duration>
    <voice>1</voice>
    <type>quarter</type>
    <stem>down</stem>
    <notehead>normal</notehead>
    <notations>
     <technical/>
    </notations>
   </note>
   <note>
    <pitch>
     <step>D</step>
     <octave>5</octave>
    </pitch>
    <duration>1</duration>
    <voice>1</voice>
    <type>quarter</type>
    <stem>down</stem>
    <notehead>normal</notehead>
    <notations>
     <technical/>
    </notations>
   </note>
  </measure>
  <measure number="30">
   <attributes>
    <clef>
     <sign>G</sign>
     <line>2</line>
    </clef>
   </attributes>
   <note>
    <pitch>
     <step>E</step>
     <octave>5</octave>
    </pitch>
    <duration>1</duration>
    <voice>1</voice>
    <type>quarter</type>
    <stem>down</stem>
    <notehead>normal</notehead>
    <notations>
     <technical/>
    </notations>
   </note>
   <note>
    <pitch>
     <step>E</step>
     <octave>5</octave>
    </pitch>
    <duration>1</duration>
    <voice>1</voice>
    <type>quarter</type>
    <stem>down</stem>
    <notehead>normal</notehead>
    <notations>
     <technical/>
    </notations>
   </note>
   <note>
    <pitch>
     <step>F</step>
     <octave>5</octave>
    </pitch>
    <duration>1</duration>
    <voice>1</voice>
    <type>quarter</type>
    <stem>down</stem>
    <notehead>normal</notehead>
    <notations>
     <technical/>
    </notations>
   </note>
  </measure>
  <measure number="31">
   <attributes>
    <clef>
     <sign>G</sign>
     <line>2</line>
    </clef>
   </attributes>
   <note>
    <pitch>
     <step>C</step>
     <octave>5</octave>
    </pitch>
    <duration>3</duration>
    <voice>1</voice>
    <type>half</type>
    <dot/>
    <stem>down</stem>
    <notehead>normal</notehead>
    <notations>
     <technical/>
    </notations>
   </note>
  </measure>
 </part>
</score-partwise>
